<svg version="1.1" id="Layer_1" xmlns="http://www.w3.org/2000/svg" x="0px"
     y="0px"
     width="100%" viewBox="0 0 150 150" enable-background="new 0 0 150 150" xml:space="preserve">
<path fill="#7A56E1" opacity="1.000000" stroke="none"
      d="
M67.000000,151.000000 
	C44.684868,151.000000 22.869736,151.000000 1.027301,151.000000 
	C1.027301,101.059898 1.027301,51.119770 1.027301,1.089824 
	C50.898293,1.089824 100.796806,1.089824 150.847656,1.089824 
	C150.847656,50.999645 150.847656,100.999771 150.847656,151.000000 
	C123.120110,151.000000 95.310051,151.000000 67.000000,151.000000 
M57.841446,116.744507 
	C80.192635,124.427498 100.450768,117.352768 112.748138,97.569481 
	C124.965218,77.915359 121.878014,54.123676 105.203300,39.424793 
	C92.347534,28.092340 76.157860,30.068794 66.323120,44.105724 
	C59.111061,54.399357 59.765430,64.980942 64.926048,75.793930 
	C67.146881,80.447227 69.872581,84.953865 71.328690,89.837296 
	C72.035812,92.208817 71.107117,95.960754 69.474808,97.819565 
	C68.408043,99.034355 64.512833,98.618484 62.295956,97.807892 
	C56.009254,95.509132 52.407623,90.298988 49.255676,84.636230 
	C45.921772,78.646545 41.585968,77.227180 35.997295,79.796669 
	C31.643198,81.798538 30.469536,86.117210 33.131351,92.357574 
	C37.899956,103.537064 45.633842,111.901482 57.841446,116.744507 
z"/>
    <path fill="#F4F2F1" opacity="1.000000" stroke="none"
          d="
M57.489143,116.590599 
	C45.633842,111.901482 37.899956,103.537064 33.131351,92.357574 
	C30.469536,86.117210 31.643198,81.798538 35.997295,79.796669 
	C41.585968,77.227180 45.921772,78.646545 49.255676,84.636230 
	C52.407623,90.298988 56.009254,95.509132 62.295956,97.807892 
	C64.512833,98.618484 68.408043,99.034355 69.474808,97.819565 
	C71.107117,95.960754 72.035812,92.208817 71.328690,89.837296 
	C69.872581,84.953865 67.146881,80.447227 64.926048,75.793930 
	C59.765430,64.980942 59.111061,54.399357 66.323120,44.105724 
	C76.157860,30.068794 92.347534,28.092340 105.203300,39.424793 
	C121.878014,54.123676 124.965218,77.915359 112.748138,97.569481 
	C100.450768,117.352768 80.192635,124.427498 57.489143,116.590599 
M94.649323,55.729816 
	C91.800507,52.981529 88.592590,51.168846 84.891861,53.841297 
	C81.198273,56.508583 80.323784,60.404663 82.076324,64.526474 
	C85.603241,72.821449 89.375671,81.012039 93.046654,89.245766 
	C101.537003,80.256279 102.378189,67.069061 94.649323,55.729816 
z"/>
    <path fill="#7E5AE1" opacity="1.000000" stroke="none"
          d="
M94.898819,56.013943 
	C102.378189,67.069061 101.537003,80.256279 93.046722,89.245728 
	C89.375671,81.012039 85.603241,72.821449 82.076324,64.526474 
	C80.323784,60.404663 81.198273,56.508583 84.891861,53.841297 
	C88.592590,51.168846 91.800507,52.981529 94.898819,56.013943 
z"/>
</svg>
