<svg width="24" height="24" viewBox="0 0 24 24" fill="none" xmlns="http://www.w3.org/2000/svg">
    <g clip-path="url(#clip0_3_8)">
        <path
            d="M7.03141 22.9686C3.84003 21.7045 1.75811 19.4495 0.474427 16.4356C-0.242119 14.7532 0.0738245 13.589 1.24592 13.0493C2.75036 12.3566 3.91754 12.7392 4.815 14.354C5.66349 15.8806 6.63303 17.2852 8.32537 17.905C8.92214 18.1235 9.97071 18.2356 10.2579 17.9081C10.6973 17.407 10.9473 16.3955 10.7569 15.7561C10.365 14.4396 9.63122 13.2247 9.03338 11.9702C7.64417 9.05508 7.46802 6.20237 9.40946 3.4273C12.0569 -0.356944 16.4151 -0.88978 19.8758 2.16536C24.3645 6.12805 25.1956 12.5421 21.9068 17.8407C18.5964 23.1741 13.1431 25.0814 7.03141 22.9686ZM17.0347 6.56105C16.2678 5.82014 15.4043 5.33145 14.4081 6.05192C13.4138 6.771 13.1784 7.82135 13.6501 8.93256C14.5996 11.1688 15.6151 13.3769 16.6033 15.5967C18.8888 13.1732 19.1153 9.61802 17.0347 6.56105Z"
            fill="#7A56E1"/>
    </g>
    <defs>
        <clipPath id="clip0_3_8">
            <rect width="24" height="24" fill="white"/>
        </clipPath>
    </defs>
</svg>
